<svg width="750" height="750" viewBox="0 0 750 750" fill="none" xmlns="http://www.w3.org/2000/svg">
<rect width="750" height="750" fill="white"/>
<path fill-rule="evenodd" clip-rule="evenodd" d="M197.421 130.657C197.435 129.58 198.222 128.669 199.285 128.499C204.701 126.866 209.798 124.389 215.156 122.582C218.043 121.629 220.847 120.443 223.541 119.036C225.495 117.996 227.723 117.69 229.764 116.802L230.316 116.544C232.67 115.367 235.314 114.871 237.768 113.851C239.838 112.991 242.169 112.898 244.32 112.083C247.463 110.935 250.661 109.946 253.904 109.12C255.917 108.339 258.056 107.932 260.216 107.919C260.796 107.975 261.143 107.631 261.598 107.509C263.539 106.925 265.515 106.46 267.513 106.117C271.762 105.509 275.95 104.494 280.201 103.951C283.288 103.56 286.334 102.985 289.401 102.502C292.352 102.039 295.312 101.634 298.282 101.287C305.23 100.45 312.221 100.02 319.219 100C324.697 100.052 330.168 100.413 335.606 101.083C340.034 101.446 344.434 102.103 348.775 103.052C352.215 103.921 355.803 104.297 359.102 105.46C362.214 106.557 365.407 107.491 368.524 108.503C375.744 110.845 382.848 113.467 389.837 116.371C393.953 118.075 398.06 119.879 402.189 121.513C407.034 123.429 411.624 125.881 416.459 127.811C419.291 128.944 422.071 130.491 424.87 131.823C427.581 133.112 430.094 134.772 432.884 135.891C435.628 137.104 438.308 138.455 440.914 139.94C443.383 141.239 446.322 142.054 448.255 144.344C450.712 144.182 452.151 146.245 454.09 147.183C456.03 148.12 457.926 149.198 459.881 150C461.897 150.825 463.928 151.723 465.897 152.596C469.896 154.369 474.042 155.749 478.022 157.503C480.451 158.571 483.025 158.832 485.479 159.664C490.188 161.231 495.041 162.325 499.966 162.931C501.949 163.136 503.889 163.64 505.721 164.428C507.095 165.06 508.378 164.212 509.755 164.587C511.985 165.195 514.315 165.426 516.591 165.86C517.291 166.123 518.08 165.988 518.653 165.507L519.958 166.997C520.776 167.148 520.163 166.397 520.592 166.172C521.544 166.263 522.594 166.116 523.518 166.837C524.385 167.516 525.318 166.634 526.324 166.949C528.513 167.627 531.089 166.352 533.091 168.207C535.274 167.588 537.447 168.274 539.626 168.285C540.681 168.233 541.717 168.557 542.553 169.193L542.743 169.346C543.509 170.05 544.679 168.402 545.373 169.754C549.147 169.017 552.486 170.949 555.896 171.835C561.366 173.258 566.977 174.272 572.243 176.635C574.878 177.816 577.959 178.279 580.666 179.432C586.751 182.023 593.023 184.202 598.799 187.523C601.184 188.896 603.875 189.738 606.249 191.135L608.992 192.75C613.103 195.178 617.19 197.651 621.113 200.382C622.113 200.871 622.956 201.63 623.546 202.573C624.108 203.768 625.599 203.279 626.58 204.014C627.749 204.882 628.382 206.23 629.803 206.95C630.587 207.347 631.446 208.427 632.353 208.89C635.303 210.394 637.029 213.405 640.012 214.838C641.023 215.55 641.862 216.479 642.469 217.556C644.836 220.516 648.376 222.288 650.475 225.436L650.752 225.874C651.783 227.542 653.187 228.947 654.851 229.978L655.5 230.368C655.979 230.659 656.424 230.966 656.518 231.415C656.913 233.29 658.528 234.246 659.581 235.582C660.71 237.013 662.322 238.036 663.319 239.662C664.156 241.409 665.296 242.994 666.688 244.342C669.311 246.336 670.763 249.127 672.576 251.669C673.483 252.938 675.015 253.942 674.738 255.943C674.596 256.961 676.772 256.217 676.584 257.686L676.555 257.852C676.332 258.854 676.964 259.371 677.858 259.837C678.676 260.263 678.093 261.832 679.07 262.112C680.047 262.392 681.17 263.133 680.946 263.632C680.393 264.884 682.332 264.849 681.801 265.841C681.772 265.96 681.801 266.085 681.878 266.18C684.177 268.751 684.795 272.272 686.977 274.97C688.222 276.646 689.139 278.542 689.68 280.558C690.306 282.389 691.083 284.165 692.003 285.867C693.463 288.826 693.965 292.093 695.443 295.009C695.842 295.799 694.208 297.201 696.194 297.527C695.688 298.747 696.902 299.331 697.167 300.242C697.251 301.06 697.208 301.886 697.04 302.691C698.082 304.248 698.742 306.027 698.967 307.886C699.87 311.593 700.537 315.352 700.966 319.143L701.31 322.265C701.763 326.434 702.106 330.624 701.244 334.802C701.022 335.877 702.092 336.26 701.994 337.219C701.454 342.808 701.486 348.432 699.929 353.942C699.278 356.249 699.444 358.878 698.793 361.249C697.562 365.744 696.912 370.362 695.143 374.763L694.819 375.538C693.622 378.279 692.818 381.313 691.664 384.149C690.934 386.101 642.998 615.822 480.192 557.24C402.985 529.458 333.064 676.95 226.862 645.603C-73.8022 556.856 69.1802 188.056 190.291 132.987C191.22 132.747 192.113 132.389 192.95 131.921C194.194 130.887 195.819 130.427 197.421 130.657Z" fill="#FFD06C"/>
<path fill-rule="evenodd" clip-rule="evenodd" d="M301.502 552.818C297.29 513.867 300.293 464.865 315.368 428.704C312.605 433.879 352.34 442.344 351.919 444.562C349.156 459.111 347.387 475.509 345.009 493.597C342.308 514.144 344.147 536.145 346.426 552.53C351.819 591.297 305.709 591.732 301.502 552.818Z" fill="white"/>
<path fill-rule="evenodd" clip-rule="evenodd" d="M306.1 430.371C315.506 401.876 337.886 377.949 365.69 366.663C379.823 360.926 396.249 358.3 387.922 360.174C386.263 370.397 396.736 379.425 407.082 379.912C417.428 380.399 427.046 374.855 435.475 368.835C429.942 358.959 435.516 363.822 443.56 375C443.837 375.617 404.037 384.649 379.175 402.752C357.443 418.576 349.582 443.746 357.597 444.562C353.739 446.313 349.279 446.702 345.176 445.647C345.176 445.647 317.146 437.621 306.1 430.371Z" fill="white"/>
<path fill-rule="evenodd" clip-rule="evenodd" d="M306.1 430.37C315.506 401.875 337.886 377.949 365.69 366.663C370.819 364.581 384.02 359.921 391.264 356.024C404 349.174 401 343.203 401 338.87C401 334.039 422.559 328.112 427.043 331.481C430.18 333.838 428.54 342.598 430.361 349.92C433.217 361.406 438.879 372.282 441.151 370.659C447.963 380.254 477.362 387.698 501.768 414.347C512.27 425.814 515.136 439.065 518.887 449.18C522.164 458.018 528.425 464.074 530.098 466.401C530.224 466.682 490.622 485.455 490.622 485.455C490.622 485.455 500.73 542.67 487.19 552.53C465.458 568.354 346.033 612.897 354.048 613.713C351.802 614.733 342.152 534.289 343.784 496.153C344.956 468.782 353.633 445.003 351.919 444.562C351.919 444.562 317.146 437.621 306.1 430.37Z" fill="white"/>
<path fill-rule="evenodd" clip-rule="evenodd" d="M500.708 534.072C520.479 526.953 522.45 474.755 522.937 474.306C525.946 487.952 528.13 501.78 529.474 515.688C530.065 521.805 530.491 528.002 529.534 534.072C528.528 540.449 526.018 546.509 522.9 552.161C515.988 564.692 505.962 575.489 493.978 583.309C492.038 584.574 489.989 585.786 487.709 586.19C482.666 587.084 477.848 583.892 474.014 580.496C454.642 563.337 444.929 537.995 436.866 513.405C434.182 505.218 417.683 460.718 420.564 459.366C415.829 457.782 410.502 458.046 405.947 460.091C403.194 461.327 400.979 456.705 402.713 454.235C404.447 451.765 407.746 451.131 410.613 450.188C413.481 449.245 416.604 447.122 416.395 444.112C411.383 444.877 406.439 446.089 401.641 447.727C399.365 448.504 397.033 446.296 396.457 443.961C394.915 437.7 401.231 432.347 407.18 429.86C413.369 427.273 420.037 425.835 426.743 425.643C428.106 425.604 449.354 428.55 445.053 445.475C445.001 445.678 444.419 447.512 444.373 447.727C439.873 468.859 477.438 542.451 500.708 534.072Z" fill="white"/>
<path fill-rule="evenodd" clip-rule="evenodd" d="M411.268 426.819C409.105 425.689 410.209 422.43 411.449 420.328C415.457 413.533 418.01 405.885 418.888 398.045C424.883 397.248 431.169 398.931 435.964 402.616C436.744 403.215 437.518 403.911 437.827 404.845C438.226 406.049 437.768 407.352 437.315 408.537C435.078 414.381 432.841 420.224 430.604 426.068C434.432 426.071 415.803 429.413 411.268 426.819Z" fill="white"/>
<path fill-rule="evenodd" clip-rule="evenodd" d="M349.646 282.262C342.379 216.941 334.61 220.589 326.037 206.958C313.365 186.811 316.682 160.352 325.276 138.157C330.66 124.253 338.003 110.963 348.109 100C349.937 100.569 350.563 102.983 349.988 104.809C349.414 106.635 348.03 108.068 346.917 109.626C343.6 114.266 342.634 120.502 344.391 125.929C346.898 133.673 354.403 138.959 362.273 141.038C370.144 143.118 378.441 142.525 386.559 141.917C394.534 141.32 402.509 140.723 410.485 140.125C418.455 139.529 426.814 138.995 434.103 142.275C441.391 145.555 447.02 154.011 444.317 161.533C443.484 163.851 444.81 166.467 446.704 168.041C448.598 169.615 450.979 170.449 453.173 171.568C462.417 176.283 468.169 186.14 470.43 196.268C472.69 206.396 471.938 216.923 471.175 227.273C470.642 234.49 470.11 241.707 469.578 248.925C469.21 253.915 468.958 259.354 471.83 263.451C475.289 268.385 471.492 275.189 467.01 279.218C462.528 283.246 456.875 287.005 455.85 292.943C454.503 300.742 430.36 336.041 407.041 338.871C384.462 341.61 352.906 311.572 349.646 282.262Z" fill="white"/>
<path fill-rule="evenodd" clip-rule="evenodd" d="M359.175 291.089C365.733 291.528 372.321 291.512 378.876 291.039C381.338 290.861 384.248 290.31 385.231 288.046C386.413 285.321 389.265 283.406 392.234 283.344C395.204 283.282 398.134 285.075 399.43 287.747C400.821 290.618 404.912 290.469 408.031 289.794C416.312 288.001 424.46 285.594 432.387 282.601C435.978 281.245 438.066 277.309 438.375 273.483C438.684 269.657 437.552 265.878 436.434 262.207C426.454 264.497 416.165 265.008 405.938 265.511C385.326 266.524 364.714 267.537 344.101 268.55C345.403 274.286 346.704 280.022 348.005 285.758C348.29 287.015 348.611 288.339 349.506 289.266C350.401 290.193 352.074 290.497 352.942 289.545C350.242 283.202 347.485 276.36 348.884 269.61C350.619 275.435 352.354 281.261 354.089 287.086C354.411 288.165 354.771 289.306 355.622 290.043C356.572 290.867 357.92 291.005 359.175 291.089ZM436.065 260.334C436.857 259.39 436.251 257.476 435.036 257.685C405.782 262.73 375.814 260.662 346.191 262.595C344.571 262.701 342.432 263.381 342.573 264.999C347.167 266.552 352.15 266.282 356.991 265.994C382.217 264.494 407.442 262.994 432.668 261.494C433.898 261.421 435.273 261.278 436.065 260.334Z" fill="#E7EAEE"/>
<path fill-rule="evenodd" clip-rule="evenodd" d="M417.637 455.713C417.637 461.778 429.517 495.122 427.043 486.868C427.323 490.095 429.347 495.908 426.562 497.562C424.786 498.617 422.546 498.282 420.517 497.892C404.335 494.782 388.422 490.275 373.012 484.437C370.303 483.411 367.336 482.085 366.246 479.4C364.534 475.187 368.428 470.946 371.937 468.054C379.636 461.708 387.335 455.362 395.034 449.017C395.603 448.548 396.251 448.052 396.987 448.104C397.723 448.157 398.347 449.128 397.827 449.651C389.566 456.419 417.637 449.649 417.637 455.713Z" fill="white"/>
<path fill-rule="evenodd" clip-rule="evenodd" d="M426.562 497.562C424.786 498.617 422.546 498.282 420.518 497.892C404.335 494.782 388.422 490.275 373.013 484.437C370.303 483.41 367.337 482.085 366.246 479.4C364.534 475.187 370.421 469.999 375.001 467.5C382.955 463.158 391.286 472.629 402.417 479.4C414.213 486.576 428.586 491.187 428.243 490.221" fill="#FFD06C"/>
<path fill-rule="evenodd" clip-rule="evenodd" d="M464.173 314.784C463.535 314.88 463.742 315.857 464.116 316.383C468.01 321.865 471.904 327.347 475.798 332.829C476.46 333.761 477.098 335.126 476.282 335.926C464.958 330.903 455.786 321.22 451.384 309.641C452.18 308.743 453.528 309.959 454.094 311.017C457.961 318.247 463.226 324.726 469.512 329.99C470.156 330.53 471.124 331.062 471.757 330.51C465.706 323.501 460.843 315.469 457.436 306.859C457.293 306.497 457.151 306.105 457.246 305.729C457.433 304.993 458.454 304.768 459.13 305.113C459.807 305.459 460.214 306.156 460.607 306.806C464.019 312.45 469.071 317.09 474.984 320.01C475.562 318.89 474.554 317.64 473.656 316.755C466.847 310.037 461.861 301.487 459.369 292.252C458.868 290.396 459.09 287.619 461.011 287.539C461.493 291.921 462.724 296.219 464.633 300.193C467.01 305.141 470.394 309.524 473.752 313.866C476.463 317.37 479.174 320.874 481.884 324.378C481.363 325.061 480.301 324.859 479.494 324.566C473.754 322.478 468.482 319.112 464.173 314.784Z" fill="#00160A"/>
<path fill-rule="evenodd" clip-rule="evenodd" d="M400.5 302C408.508 302 415 306.701 415 312.5C415 318.299 410.093 323.606 402.085 323.606C394.076 323.606 386 318.299 386 312.5C386 306.701 392.492 302 400.5 302ZM400.5 305C393.979 305 388.037 308.605 388.037 312.5C388.037 316.395 394.111 321.418 400.632 321.418C407.154 321.418 412 316.395 412 312.5C412 308.605 407.021 305 400.5 305Z" fill="#00160A"/>
<path fill-rule="evenodd" clip-rule="evenodd" d="M255.34 428.783C255.145 429.186 255.039 429.633 255.033 430.081C254.177 429.649 253.321 429.216 252.465 428.783C255.556 436.419 258.647 444.054 261.739 451.69C262.213 452.862 262.707 454.064 263.577 454.982C263.502 452.677 262.819 450.441 262.142 448.237C260.179 441.848 258.216 435.458 256.253 429.069C256.101 428.744 255.65 428.603 255.34 428.783Z" fill="#FFD06C"/>
<path fill-rule="evenodd" clip-rule="evenodd" d="M269.083 404.577C270.065 406.083 270.146 407.98 270.632 409.711C271.672 413.414 274.543 416.285 276.377 419.666C278.212 423.046 278.676 427.907 275.586 430.198C274.098 431.301 274.376 433.545 274.581 435.386C274.786 437.228 274.304 439.664 272.469 439.919C271.428 440.064 270.424 439.334 269.91 438.417C269.396 437.501 269.262 436.427 269.119 435.385C268.164 428.431 266.352 421.594 263.738 415.079C263.084 413.449 262.446 411.392 263.643 410.107C265.158 408.481 263.169 405.459 264.549 403.717C265.665 402.308 268.102 403.071 269.083 404.577Z" fill="#FFD06C"/>
<path fill-rule="evenodd" clip-rule="evenodd" d="M389.217 400.131C389.911 398.532 390.605 396.932 391.3 395.333C392.149 393.375 393.709 391.038 395.778 391.563C396.397 391.72 396.926 392.134 397.338 392.622C399.448 395.121 398.48 399.049 396.509 401.659C395.158 403.447 393.399 404.925 391.404 405.946C390.187 406.569 388.671 405.417 388.394 404.078C388.117 402.74 388.673 401.385 389.217 400.131M394.596 400.172C395.224 399.394 395.867 398.589 396.145 397.629C396.423 396.669 396.246 395.504 395.456 394.891C392.862 397.307 390.974 400.474 390.082 403.905C390.72 404.491 391.692 403.768 392.236 403.095C393.023 402.12 393.81 401.146 394.596 400.172Z" fill="#FFD06C"/>
<path fill-rule="evenodd" clip-rule="evenodd" d="M348.179 403.954C351.326 401.505 356.576 402.998 358.238 406.622C359.9 410.246 357.893 414.985 354.251 416.609C353.296 417.035 352.258 417.274 351.212 417.31C349.291 417.374 347.267 416.666 346.112 415.13C344.908 413.528 344.832 411.333 345.212 409.367C345.61 407.302 346.519 405.245 348.179 403.954" fill="#FFD06C"/>
<path fill-rule="evenodd" clip-rule="evenodd" d="M421.959 252.685C419.399 255.163 415.238 254.4 411.799 253.47C410.165 253.028 408.53 252.586 406.895 252.144C405.267 251.703 403.263 251.36 402.115 252.596C401.047 253.747 398.919 252.165 399.23 250.626C399.541 249.088 401.235 248.221 402.796 248.057C408.298 247.482 413.272 252.717 418.732 251.823C419.966 251.621 421.757 251.451 421.959 252.685L421.959 252.685Z" fill="#00160A"/>
<path fill-rule="evenodd" clip-rule="evenodd" d="M342.937 395.703C344.255 394.61 346.149 394.103 347.735 394.751C349.32 395.399 350.343 397.372 349.656 398.941C349.184 400.017 348.097 400.676 347.039 401.188C345.59 401.888 343.785 402.421 342.444 401.53C340.556 400.277 341.192 397.149 342.937 395.703M344.149 398.563C343.573 398.851 343.712 399.897 344.344 400.024C345.741 399.616 347.073 398.982 348.27 398.154C347.141 397.092 345.071 397.324 344.206 398.61L344.149 398.563Z" fill="#FFD06C"/>
<path fill-rule="evenodd" clip-rule="evenodd" d="M417.884 332.599C415.646 333.086 413.157 332.077 411.891 330.168C422.364 331.044 433.141 327.326 440.847 320.179C448.553 313.032 453.07 302.566 452.985 292.056C452.387 292.223 451.814 292.478 451.29 292.81C450.104 292.305 450.886 290.51 451.796 289.596L469.589 271.732C472.667 268.642 468.859 262.822 464.498 262.841C460.136 262.859 456.639 266.452 454.343 270.161C451.716 274.406 449.924 279.165 449.099 284.089L439.929 264.075C438.848 266.144 439.47 268.436 440.106 270.778C440.51 272.265 440.919 273.773 440.901 275.255C440.821 281.664 433.393 284.991 427.232 286.758L410.47 291.567C406.034 292.84 399.915 293.383 398.109 289.136C396.339 284.973 389.257 284.858 387.351 288.96C385.548 292.841 380.38 293.477 376.1 293.46C367.951 293.429 359.804 292.999 351.697 292.172C350.453 292.045 349.12 291.87 348.196 291.028C347.366 290.272 347.034 289.129 346.739 288.046L341.413 268.555C340.833 266.43 340.265 264.098 341.171 262.09C342.077 260.082 345.176 259.052 346.502 260.811C343.9 250.322 343.458 239.302 345.21 228.638L348.527 260.556L429.342 257.159C431.099 257.085 433.147 256.849 434.058 255.343C434.856 254.024 434.392 252.334 433.901 250.872C431.924 244.994 429.827 239.156 427.612 233.364C426.927 231.574 426.177 229.71 424.712 228.475C421.599 225.852 416.927 227.151 413.056 228.411C397.744 233.393 381.249 235.624 365.447 232.527C349.645 229.429 334.611 220.589 326.038 206.958C313.366 186.811 316.683 160.352 325.277 138.157C330.66 124.253 338.004 110.963 348.109 100C349.937 100.569 350.564 102.983 349.989 104.809C349.557 106.182 348.667 107.333 347.779 108.482C347.486 108.861 347.193 109.24 346.917 109.626C343.601 114.266 342.635 120.502 344.392 125.929C346.899 133.673 354.404 138.959 362.274 141.038C370.145 143.118 378.442 142.525 386.56 141.917L410.485 140.125C418.456 139.529 426.815 138.995 434.103 142.275C441.392 145.555 447.021 154.011 444.317 161.533C443.484 163.851 444.811 166.467 446.705 168.041C448.072 169.178 449.693 169.928 451.315 170.679C451.939 170.968 452.563 171.257 453.173 171.568C462.418 176.283 468.17 186.14 470.43 196.268C472.691 206.396 471.939 216.923 471.176 227.273L469.579 248.925C469.211 253.915 468.958 259.354 471.83 263.451C475.289 268.385 471.492 275.189 467.01 279.218C466.242 279.908 465.439 280.591 464.631 281.278C460.726 284.599 456.7 288.023 455.85 292.943C453.408 307.089 447.341 322.284 434.249 328.173C432.462 328.977 430.596 329.579 428.729 330.181L428.728 330.181C426.924 330.763 425.119 331.344 423.387 332.109C421.747 332.832 420.178 333.715 418.612 334.597L418.612 334.597C416.343 335.875 414.077 337.151 411.603 337.936C403.936 340.368 395.571 337.704 388.45 333.964C372.064 325.359 358.889 310.799 351.959 293.639C354.635 293.626 356.23 296.515 357.377 298.933C364.286 313.502 376.268 325.605 390.767 332.66C399.395 336.858 410.676 338.932 417.884 332.599ZM445.256 172.436C444.459 172.102 443.592 171.79 442.747 171.976C441.652 172.216 440.986 173.158 440.313 174.109L440.313 174.11C440 174.551 439.687 174.995 439.327 175.372C438.195 176.56 435.395 176.271 435.776 174.674C437.908 170.43 440.071 166.087 440.713 161.381C441.354 156.674 440.208 151.454 436.625 148.336C434.148 146.18 430.837 145.268 427.603 144.697C417.234 142.865 406.659 143.893 396.135 144.916L396.135 144.916C393.9 145.133 391.667 145.35 389.44 145.54C376.72 146.621 363.343 146.673 351.903 141.008C344.128 137.158 339.499 127.817 341.143 119.298C327.465 135.952 321.311 158.214 322.908 179.706C323.367 185.885 324.445 192.063 326.709 197.831C332.31 212.095 345.072 222.929 359.556 227.933C374.04 232.936 390.044 232.482 404.849 228.527C419.654 224.572 433.375 217.268 446.158 208.816C446.99 208.266 448.071 209.47 447.812 210.433C447.553 211.397 446.597 211.977 445.723 212.457L423.549 224.643C427.98 226.97 430.375 231.841 432.258 236.478C434.656 242.386 436.699 248.439 438.372 254.593L462.139 235.503C462.964 234.841 464.639 234.514 464.673 235.571L442.003 254.424C440.859 255.375 439.595 256.64 439.891 258.099L461.452 240.342C463.755 238.445 466.216 236.284 466.685 233.338C468.791 220.134 470.828 206.193 465.992 193.727C462.311 184.237 454.645 176.367 445.256 172.436ZM355.622 290.043C356.573 290.867 357.921 291.005 359.176 291.089C365.733 291.528 372.321 291.511 378.877 291.039C381.339 290.861 384.248 290.31 385.231 288.045C386.413 285.321 389.265 283.406 392.235 283.344C395.205 283.282 398.134 285.075 399.43 287.747C400.822 290.618 404.913 290.469 408.031 289.794C416.312 288.001 424.461 285.594 432.388 282.601C435.978 281.245 438.066 277.309 438.375 273.483C438.684 269.657 437.553 265.878 436.434 262.207C426.455 264.497 416.165 265.008 405.939 265.511L344.102 268.549L348.006 285.758C348.291 287.015 348.611 288.339 349.506 289.266C350.402 290.193 352.074 290.497 352.943 289.545C350.243 283.202 347.486 276.36 348.885 269.61L354.09 287.086C354.411 288.165 354.771 289.306 355.622 290.043ZM432.669 261.494C433.899 261.421 435.274 261.278 436.066 260.334C436.858 259.39 436.251 257.476 435.037 257.685C416.313 260.914 397.297 261.229 378.265 261.544C367.562 261.722 356.854 261.899 346.191 262.595C344.571 262.701 342.433 263.381 342.574 264.998C347.167 266.552 352.151 266.282 356.991 265.994L432.669 261.494ZM464.641 247.088C465.791 246.012 466.06 244.32 466.264 242.759L466.825 238.479L442.164 258.948C441.795 259.255 441.403 259.596 441.297 260.064C441.185 260.558 441.42 261.057 441.648 261.509L449.276 276.632C450.861 265.428 456.378 254.819 464.641 247.088ZM466.11 251.924C466.179 250.766 466.206 249.477 465.441 248.604C461.621 253.076 458.265 257.945 455.444 263.106C455.097 263.741 454.798 264.633 455.35 265.1C458.042 262.85 461.165 261.116 464.499 260.022C465.493 259.696 465.724 258.418 465.786 257.374L466.11 251.924ZM365.69 366.663C337.886 377.949 315.506 401.876 306.1 430.371C317.146 437.621 345.176 445.647 345.176 445.647C349.28 446.702 353.739 446.313 357.597 444.562C340.414 442.812 323.626 437.276 308.771 428.463C321.737 396.137 350.783 370.733 384.548 362.186C387.391 368.115 390.339 374.189 395.135 378.687C399.931 383.185 407.062 385.817 413.221 383.515C422.056 380.214 430.483 375.823 438.251 370.472C441.336 376.614 441.945 383.946 439.974 390.525L439.387 392.262C439.603 391.69 439.799 391.11 439.974 390.525L443.708 379.483L481.183 402.514C488.637 407.096 496.227 411.791 501.875 418.475C507.675 425.338 511.019 433.791 514.362 442.239C517.779 450.874 521.195 459.506 527.229 466.431C516.077 474.575 503.905 481.322 491.089 486.462L480.654 449.718L493.956 530.006C494.552 516.236 493.654 502.402 491.283 488.825C505.642 483.741 519.037 475.951 530.558 465.986C523.197 459.257 519.647 449.855 516.069 440.375C513.501 433.573 510.918 426.731 506.901 420.809C495.298 403.703 462.064 385.126 448.776 377.698C445.387 375.804 443.295 374.635 443.19 374.4C435.146 363.222 430.287 349.779 429.325 336.041C427.746 347.251 429.942 358.959 435.475 368.835C427.046 374.855 417.428 380.399 407.082 379.912C396.736 379.425 386.263 370.397 387.922 360.174C396.249 358.3 402.383 349.491 401.251 341.031C398.101 354.061 383.938 359.554 370.959 364.588L370.954 364.59L370.949 364.592C369.163 365.285 367.399 365.969 365.69 366.663ZM301.695 554.577C294.989 556.122 286.937 559.335 281.507 565.783C277.71 570.291 275.113 573.79 272.926 576.737C269.307 581.612 266.81 584.977 261.858 588.902C264.68 587.179 267.941 590.932 268.108 594.235C268.166 595.38 268.06 596.551 267.955 597.716C267.757 599.91 267.56 602.087 268.461 604.049C270.819 602.588 273.239 601.069 274.867 598.823C276.496 596.577 277.157 593.396 275.734 591.015C275.248 590.201 275.961 589.212 276.641 588.551C280.838 584.473 285.618 580.994 290.789 578.255C291.522 580.434 291.3 582.917 290.191 584.931L292.716 587.877L286.885 602.477L301.476 587.655C304.38 584.705 308.365 581.5 312.2 583.057C314.149 583.848 315.381 585.656 316.588 587.429C316.856 587.822 317.123 588.214 317.397 588.593C320.342 592.672 324.7 595.71 329.547 597.062C329.619 595.755 330.301 594.494 331.356 593.719C332.796 596.077 335.163 597.851 337.83 598.572L334.221 583.139C334.031 582.323 333.85 581.422 334.247 580.685C335.246 578.832 338.116 580.13 339.456 581.753C340.796 583.375 342.783 585.405 344.602 584.347L343.152 579.355C342.663 577.67 343.478 574.851 344.984 575.75C345.477 576.046 345.659 576.66 345.8 577.218L348.555 588.137C352.055 584.15 351.679 577.855 349.101 573.218C348.711 572.516 348.385 571.771 348.042 570.985C346.118 566.578 343.643 560.907 326.118 554.629C323.543 553.706 320.651 553.616 317.76 553.527C316.315 553.482 314.869 553.437 313.463 553.289C312.383 553.174 308.829 553.229 304.296 554.044C309.451 591.457 305.798 591.483 301.695 554.577ZM303.864 550.861C305.296 550.669 306.758 550.572 308.251 550.58C308.02 550.58 355.177 548.329 355.177 583.467C355.177 586.866 353.162 591.05 349.782 590.929C356.928 609.123 365.258 626.852 374.7 643.967C365.734 646.892 356.141 647.877 346.767 646.836C334.276 658.941 314.102 662.282 298.375 654.849C300.466 658.385 294.072 660.546 290.044 659.743L247.273 651.221C243.911 650.551 239.724 648.927 239.78 645.499C239.821 642.95 242.304 641.239 244.447 639.859C257.865 631.213 268.356 618.107 273.854 603.121C271.957 607.773 263.249 605.798 263.545 600.783C251.681 596.303 239.762 606.534 231.18 615.871L182.41 668.936L359.301 677.842C369.242 678.342 377.209 670.135 383.707 662.595L429.491 609.472L356.699 603.079C383.207 603.096 409.713 604.661 436.039 607.763C416.131 631.658 395.456 654.913 374.056 677.481C370.826 680.887 365.558 681.084 360.866 681.038C301.085 680.453 241.325 677.827 181.723 673.168C178.776 671.859 180.619 667.398 182.798 665.02L227.402 616.334C237.461 605.354 251.321 593.316 265.348 598.314C267.009 597.212 265.616 595.762 264.014 594.096C262.941 592.979 261.773 591.764 261.368 590.491C260.837 588.819 261.852 587.086 262.824 585.625C272.569 570.972 284.889 554.867 301.34 551.303C297.27 512.813 296.601 472.679 311.48 436.986C301.51 473.955 298.91 512.894 303.864 550.861ZM442.67 460.544C442.646 457.599 443.112 454.584 443.572 451.608C444.552 445.26 445.506 439.089 441.62 434.153C438.205 429.813 432.212 428.461 426.691 428.324C416.752 428.078 406.169 430.566 399.15 437.607C398.313 438.446 397.986 440.696 398.904 440.494C401.01 440.029 402.749 439.064 404.459 438.115C405.978 437.272 407.473 436.443 409.181 435.987C412.813 435.018 416.975 435.291 419.936 437.607C412.523 436.257 398.235 440.496 399.15 444.111C399.821 446.762 403.985 445.169 407.662 443.763C409.001 443.251 410.276 442.764 411.294 442.515C414.592 441.71 419.538 442.066 419.587 445.462C419.617 447.514 417.569 448.897 415.768 449.881C414.392 450.633 412.485 451.367 410.577 452.1C406.763 453.568 402.948 455.035 403.387 456.646C404.002 458.9 406.939 457.962 410.229 456.913C412.796 456.094 415.577 455.206 417.637 455.713C422.203 456.838 424.18 462.1 425.436 466.632L426.09 468.991C432.664 492.724 439.262 516.538 449.092 539.112C455.896 554.736 464.613 570.154 478.184 580.462C479.775 581.67 481.515 582.837 483.5 583.063C485.429 583.283 487.337 582.584 489.115 581.804C503.143 575.653 514.176 563.787 521.274 550.214C524.112 544.785 526.395 538.997 527.248 532.931C528.013 527.493 527.614 521.963 527.077 516.497C525.947 504.99 524.212 493.542 521.882 482.217C521.32 479.484 520.886 476.197 522.937 474.306C525.946 487.952 528.131 501.78 529.474 515.688C530.065 521.805 530.491 528.002 529.534 534.072C528.529 540.448 526.018 546.509 522.901 552.161C515.989 564.691 505.963 578.489 493.978 586.309C492.038 587.574 489.99 588.786 487.709 589.19C482.666 590.084 477.848 586.892 474.014 583.496C454.643 566.337 444.929 537.995 436.867 513.405C434.182 505.218 431.603 496.996 429.129 488.742C429.409 491.969 429.347 495.908 426.562 497.562C424.786 498.617 422.546 498.282 420.517 497.892C404.335 494.782 388.422 490.275 373.012 484.437C370.303 483.411 367.336 482.085 366.246 479.4C364.534 475.187 368.428 470.946 371.937 468.054L395.034 449.017C395.603 448.548 396.251 448.051 396.987 448.104C397.723 448.157 398.348 449.128 397.827 449.651L373.043 469.955C370.234 472.256 367.137 475.924 369 479.042C369.822 480.416 371.391 481.128 372.872 481.738C387.614 487.801 403.142 491.74 418.737 495.042C420.686 495.455 422.75 495.853 424.637 495.214C426.525 494.575 428.078 492.496 427.411 490.618L419.354 467.938C418.289 464.94 417.684 460.718 420.565 459.366C415.83 457.782 410.503 458.046 405.948 460.091C403.194 461.327 400.979 456.705 402.713 454.235C404.17 452.16 406.731 451.38 409.213 450.625C409.686 450.482 410.155 450.339 410.614 450.188C413.481 449.245 416.604 447.122 416.395 444.111C411.383 444.877 406.439 446.089 401.641 447.727C399.365 448.504 397.033 446.296 396.458 443.961C394.915 437.7 401.231 432.347 407.18 429.86C413.369 427.273 420.037 425.835 426.743 425.643C428.107 425.604 428.896 424.123 429.398 422.855L435.943 406.324L421.509 402.258L411.269 426.819C409.106 425.689 410.21 422.43 411.449 420.328C415.458 413.533 418.011 405.885 418.889 398.045C424.883 397.248 431.17 398.931 435.965 402.616C436.744 403.215 437.518 403.911 437.828 404.845C438.227 406.049 437.769 407.352 437.315 408.537L430.605 426.068C436.605 426.073 442.437 429.87 444.869 435.356C446.984 440.127 446.561 445.413 446.137 450.709L446.137 450.71C445.964 452.875 445.791 455.042 445.791 457.176C445.791 471.049 453.217 483.695 460.414 495.556L468.014 508.083C470.47 512.132 472.941 516.201 476.011 519.807C481.85 526.667 489.823 531.683 498.533 533.977C490.887 534.499 483.452 530.708 477.902 525.422C472.352 520.136 468.383 513.444 464.486 506.845L452.396 486.368C447.763 478.522 442.745 469.656 442.67 460.544ZM421.723 463.05C421.544 462.542 421.314 461.978 420.814 461.778C419.977 463.09 420.336 464.804 420.762 466.301C422.428 472.159 424.688 477.849 427.496 483.254C426.397 476.326 424.054 469.666 421.723 463.05ZM421.126 399.893C424.783 401.753 428.86 402.78 432.962 402.876C429.437 400.72 425.251 399.665 421.126 399.893ZM428.163 486.524C427.966 487.082 428.408 487.767 428.998 487.818C428.826 486.322 428.358 484.86 427.628 483.543C427.336 484.502 427.506 485.591 428.077 486.416L428.163 486.524ZM482.729 608.249C481.937 607.958 481.949 606.848 482.108 606.019L484.54 593.314C484.693 592.516 485.04 591.534 485.851 591.476C486.871 591.403 487.23 592.8 487.187 593.822C487.003 598.199 486.137 602.548 484.629 606.662C484.312 607.527 483.595 608.567 482.729 608.249ZM262.16 649.312C255.486 650.2 247.976 650.873 242.72 646.665C242.393 646.404 242.069 646.112 241.909 645.725C241.233 644.093 243.623 643.055 245.341 642.647C251.305 641.23 255.737 636.323 259.456 631.45C267.862 620.433 274.723 608.24 279.776 595.336C279.877 595.078 279.978 594.818 280.08 594.557C281.918 589.839 283.858 584.86 287.993 581.999C289.642 589.233 287.926 597.164 283.433 603.069C284.14 604.416 285.998 604.789 287.437 604.296C288.877 603.803 289.991 602.673 291.048 601.58L302.723 589.509C305.464 586.674 309.805 583.673 312.906 586.11C313.918 586.906 314.463 588.096 315.008 589.286C315.215 589.74 315.423 590.194 315.657 590.626C318.34 595.587 323.925 597.222 329.58 598.878C332.227 599.653 334.889 600.432 337.276 601.56C338.101 601.949 339.282 602.298 339.76 601.521C339.921 601.259 339.937 600.935 339.945 600.628C340.102 594.533 338.725 588.406 335.974 582.965C340.96 585.396 346.398 588.316 348.229 593.553C354.192 610.608 361.469 627.202 369.976 643.141C359.75 645.012 349.137 644.735 339.022 642.336C338.816 644.847 340.905 647.321 343.415 647.538C338.417 649.05 333.447 650.652 328.507 652.344L332.261 655.442C319.422 656.28 306.464 655.258 293.915 652.417C294.146 654.463 294.564 656.489 295.161 658.46C285.874 656.844 276.716 654.483 267.805 651.406L269.29 648.364L262.16 649.312Z" fill="#00160A"/>
<path fill-rule="evenodd" clip-rule="evenodd" d="M346.739 390.864C345.771 391.274 344.527 391.301 343.787 390.554C342.872 389.63 343.18 388.073 343.749 386.904C344.253 385.868 344.957 384.868 345.988 384.354C347.019 383.84 348.427 383.956 349.14 384.861C349.577 385.416 349.691 386.168 349.632 386.872C349.487 388.593 348.329 390.191 346.739 390.864Z" fill="#FFD06C"/>
<path fill-rule="evenodd" clip-rule="evenodd" d="M372.604 253.06C371.114 253.713 369.781 251.871 368.246 251.334C366.643 250.773 364.94 251.707 363.487 252.586C360.429 254.437 357.314 256.194 354.148 257.854C353.499 258.194 352.794 258.541 352.067 258.446C351.34 258.351 350.66 257.598 350.926 256.915C351.076 256.531 351.458 256.298 351.815 256.093C354.48 254.564 357.144 253.034 359.809 251.505C363.25 249.53 367.216 247.487 371.003 248.669C371.971 248.971 372.925 249.533 373.367 250.446C373.81 251.358 373.533 252.653 372.604 253.06V253.06Z" fill="#00160A"/>
<path fill-rule="evenodd" clip-rule="evenodd" d="M379.184 309.635C378.278 311.834 376.899 314.386 374.524 314.499C372.4 314.601 370.738 312.543 370.238 310.477C369.541 307.598 370.639 304.163 373.282 302.826C375.925 301.489 379.808 303.204 380.023 306.159C380.11 307.359 379.643 308.522 379.184 309.635H379.184Z" fill="#FFD06C"/>
<path fill-rule="evenodd" clip-rule="evenodd" d="M425.689 307.777L425.712 308.243C425.85 310.516 426.353 313.082 428.405 313.942C430.366 314.763 432.631 313.399 433.807 311.628C435.447 309.161 435.59 305.558 433.564 303.398C431.538 301.237 427.302 301.521 426.09 304.223C425.597 305.321 425.639 306.575 425.689 307.777Z" fill="#FFD06C"/>
<path fill-rule="evenodd" clip-rule="evenodd" d="M429.788 265.905C430.408 265.741 431.179 265.734 431.564 266.246C431.821 266.587 431.819 267.052 431.796 267.479C431.694 269.348 430.892 271.698 429.021 271.74C427.581 271.772 426.503 270.119 426.796 268.709C427.09 267.3 428.396 266.272 429.788 265.905V265.905Z" fill="#FFD06C"/>
<path fill-rule="evenodd" clip-rule="evenodd" d="M426.628 281.257C425.714 279.636 427.567 277.883 429.179 276.951C430.517 276.177 432.624 275.625 433.27 277.029C433.714 277.995 432.978 279.066 432.284 279.872C431.535 280.741 430.741 281.638 429.675 282.06C428.609 282.483 427.192 282.256 426.628 281.257L426.628 281.257Z" fill="#FFD06C"/>
<path fill-rule="evenodd" clip-rule="evenodd" d="M413.844 273.654C413.602 274.287 413.334 274.941 412.823 275.385C412.114 276 411.063 276.08 410.158 275.832C408.327 275.331 406.932 273.48 407.048 271.585C407.163 269.689 408.851 267.992 410.749 267.955C412.648 267.919 414.43 269.633 414.38 271.532C414.361 272.265 414.106 272.969 413.844 273.654Z" fill="#00160A"/>
<path fill-rule="evenodd" clip-rule="evenodd" d="M368.031 276.497C365.927 276.279 364.359 273.86 365.019 271.85C365.68 269.84 368.377 268.822 370.2 269.895C372.024 270.968 372.445 273.82 371.008 275.373C370.262 276.181 369.125 276.61 368.031 276.497H368.031Z" fill="#00160A"/>
<path fill-rule="evenodd" clip-rule="evenodd" d="M392.823 305.697L396.993 304.919L397.044 305.572C397.36 310.134 396.617 312.274 394.816 311.991C392.984 311.704 392.305 309.712 392.779 306.018L392.823 305.697ZM396.061 306.093L394.2 306.613C393.951 309.224 394.248 310.628 395.089 310.826C395.93 311.024 396.254 309.447 396.061 306.093Z" fill="#00160A"/>
<path fill-rule="evenodd" clip-rule="evenodd" d="M401.254 304.767L406.837 304L406.904 304.63C407.33 309.14 406.336 311.255 403.923 310.976C401.464 310.691 400.557 308.719 401.2 305.06L401.254 304.767ZM402.172 305.246C401.8 307.444 402.2 309.819 403.461 309.986C404.723 310.153 405.64 308.632 405.349 305.808L404.878 305.683C404.514 305.59 404.221 305.523 404 305.484L403.704 305.436C403.322 305.378 402.812 305.315 402.172 305.246Z" fill="#00160A"/>
<path fill-rule="evenodd" clip-rule="evenodd" d="M338.21 490.668C336.881 492.64 335.551 494.611 334.222 496.582C333.413 496.569 333.364 495.375 333.594 494.599C334.835 490.419 336.076 486.24 337.317 482.06C336.443 481.668 335.636 482.703 335.23 483.571C331.134 492.333 327.023 501.133 324.24 510.396C321.458 519.659 320.032 529.471 321.424 539.042C322.332 536.922 323.24 534.802 324.148 532.682C325.59 529.314 327.037 525.935 328.903 522.783C330.935 519.35 333.448 516.214 335.393 512.731C337.339 509.248 338.72 505.263 338.196 501.308C337.411 502.4 336.626 503.492 335.841 504.584C333.62 500.264 339.603 495.321 338.21 490.668Z" fill="#FFD06C"/>
<path fill-rule="evenodd" clip-rule="evenodd" d="M280.874 485.996C282.89 486.025 281.149 481.817 282.963 480.937C284.112 480.379 285.17 481.84 285.601 483.043C288.507 491.15 290.211 499.687 290.637 508.288C291.121 518.026 297.8 527.485 295.085 536.849C294.893 537.512 294.636 538.19 294.122 538.651C292.275 540.302 289.593 537.897 288.419 535.715C284.392 528.232 281.649 520.059 280.345 511.661C280.058 509.812 279.824 507.902 278.923 506.261C278.166 504.881 276.984 503.781 276.155 502.443C274.522 499.807 274.413 496.538 274.351 493.438C274.238 487.773 274.125 482.108 274.013 476.443C273.972 474.384 274.465 471.667 276.511 471.431C278.709 476.021 280.186 480.954 280.874 485.996" fill="#FFD06C"/>
<path fill-rule="evenodd" clip-rule="evenodd" d="M242.719 646.665C247.975 650.873 255.485 650.2 262.159 649.312C264.536 648.996 266.912 648.68 269.289 648.364C268.794 649.378 268.299 650.392 267.803 651.406C276.715 654.483 285.872 656.844 295.16 658.46C294.563 656.489 294.145 654.463 293.914 652.417C306.463 655.258 319.421 656.28 332.26 655.442C331.009 654.409 329.757 653.376 328.506 652.344C333.446 650.652 338.416 649.05 343.414 647.538C340.904 647.321 338.814 644.847 339.021 642.336C349.136 644.735 359.749 645.012 369.975 643.141C361.468 627.202 354.191 610.608 348.228 593.553C346.397 588.317 340.959 585.396 335.973 582.965C338.724 588.406 340.101 594.533 339.944 600.628C339.936 600.935 339.92 601.259 339.759 601.521C339.281 602.298 338.1 601.949 337.275 601.56C329.788 598.024 319.595 597.908 315.656 590.626C314.809 589.061 314.303 587.209 312.905 586.11C309.804 583.673 305.463 586.674 302.721 589.509C298.83 593.532 294.938 597.556 291.047 601.58C289.989 602.673 288.875 603.803 287.436 604.296C285.997 604.789 284.139 604.416 283.432 603.069C287.925 597.164 289.641 589.233 287.992 581.999C283.628 585.018 281.709 590.396 279.775 595.336C274.722 608.24 267.861 620.433 259.455 631.45C255.736 636.323 251.304 641.23 245.34 642.647C243.622 643.055 241.232 644.093 241.908 645.725C242.068 646.112 242.392 646.404 242.719 646.665Z" fill="white"/>
<path fill-rule="evenodd" clip-rule="evenodd" d="M345.502 551.818C341.29 512.868 340.405 472.147 355.48 435.986C345.298 473.741 342.803 513.55 348.19 552.281C353.582 591.048 349.709 590.732 345.502 551.818Z" fill="#00160A"/>
<path fill-rule="evenodd" clip-rule="evenodd" d="M299.299 448.448C299.54 445.847 299.883 443.254 300.326 440.679C300.561 439.315 302.572 438.973 303.673 439.811C304.775 440.649 305.162 442.108 305.462 443.459C310.078 464.251 310.311 486.006 306.14 506.892C305.746 508.865 304.72 511.315 302.711 511.2C300.956 511.098 300.078 509.076 299.599 507.384C295.783 493.919 292.378 480.336 289.391 466.662C288.62 463.13 287.872 459.53 288.184 455.928C288.497 452.326 290.025 448.662 292.986 446.589C294.128 445.789 295.54 445.239 296.909 445.506C298.277 445.772 299.491 447.068 299.299 448.448" fill="#FFD06C"/>
<path fill-rule="evenodd" clip-rule="evenodd" d="M339.227 582.433C340.71 584.992 345.659 585.893 344.977 584.3C344.295 582.707 344.081 581.37 343.399 579.777C342.709 578.165 343.174 575.267 344.777 575.977C345.304 576.209 345.558 576.797 345.766 577.334C347.122 580.834 347.2 584.636 348.555 588.137C353.602 583.755 350.457 573.119 347.333 568.83C344.209 564.542 343.125 558.194 321.727 553.367C317.725 552.464 313.1 552.49 308.858 552.561C306.068 552.607 287.489 555.759 278.638 567.42C269.786 579.08 268.976 581.683 261.857 588.902C264.516 588.137 267.408 590.49 267.977 593.748C268.546 597.006 266.241 601.478 267.977 604.293C277.748 602.007 276.159 593.805 276.754 593.067C280.423 588.507 283.47 581.316 289.541 581.123C290.535 583.197 290.131 585.555 289.761 587.823C290.717 588.695 287.829 597.99 286.493 603.057C290.718 597.56 297.069 594.647 301.295 589.151C303.818 585.869 307.382 582.202 311.378 583.28C313.86 583.949 315.322 587.266 317.069 589.151C320.49 592.841 324.571 596.311 329.546 597.062C329.459 595.756 330.711 595.256 331.663 594.357C333.38 596.522 335.537 598.56 338.272 598.951C336.451 593.991 336.629 588.714 334.808 583.755C334.52 582.969 334.231 582.096 334.535 581.316C335.3 579.355 337.745 579.874 339.227 582.433Z" fill="#FFD06C"/>
<path fill-rule="evenodd" clip-rule="evenodd" d="M537.076 285.908C539.586 285.848 541.499 286.341 545.117 287.787C545.117 287.787 551.709 290.904 551.472 291.698C551.235 292.492 547.489 291.994 546.141 291.445L544.442 290.749C541.287 289.471 539.6 288.966 537.796 288.909L537.566 288.904L537.553 289.006L537.543 289.125C537.503 289.737 537.637 290.545 537.834 291.01C538.202 291.874 538.639 292.725 539.135 293.556L539.458 294.081L539.834 294.125C544.67 294.734 549.347 296.609 552.391 299.304L552.663 299.551C556.058 302.717 557.534 304.993 556.766 306.768C555.917 308.728 553.522 308.572 550.453 307.298C546.011 305.453 541.34 301.797 538.038 297.315L537.773 296.948L537.689 296.943C537.118 296.913 536.548 296.904 535.982 296.916L535.559 296.93C529.486 297.181 525.205 299.822 524.018 304.562C523.619 306.153 523.862 307.805 524.612 309.414L524.759 309.717L524.814 309.719C530.39 309.945 535.654 311.579 538.569 314.227L538.795 314.438C540.366 315.959 541.357 317.238 541.785 318.33C542.363 319.808 541.937 321.206 540.557 321.817C538.916 322.545 536.01 321.927 532.774 320.424C528.681 318.522 525.232 315.869 523.106 312.834L523.012 312.697L522.711 312.703C522.437 312.71 522.162 312.721 521.887 312.736L521.475 312.761C514.874 313.214 510.044 315.78 508.808 319.83C508.347 321.34 508.72 323.413 509.703 325.575L509.755 325.688L510.032 325.682C513.241 325.642 516.485 326.696 519.364 328.996L519.837 329.379C520.191 329.659 520.844 330.158 520.782 330.11L521.195 330.44C523.047 331.962 523.8 333.208 522.933 334.933C520.733 339.315 515.731 337.818 511.294 333.145C510.121 331.91 509.084 330.566 508.228 329.181L508.053 328.893L507.815 328.941C505.521 329.432 503.315 330.625 501.423 332.436L501.188 332.666C497.325 336.522 496.363 341.489 498.928 345.393L499.106 345.654L499.263 345.725C500.155 346.137 501.129 346.652 502.287 347.305L503.475 347.985L504.879 348.794C505.027 348.879 505.152 348.96 505.267 349.052C505.629 349.342 505.86 349.631 505.889 350.227C505.939 351.282 505.249 351.726 504.535 351.82C504.35 351.845 504.188 351.839 504.007 351.817C503.621 351.771 503.047 351.623 502.387 351.411C500.804 350.901 499.355 350.248 498.621 349.586C498.113 349.128 497.654 348.651 497.243 348.157L497.197 348.1L497.184 348.096C496.432 347.791 495.736 347.574 495.003 347.408L494.781 347.359C492.381 346.854 489.819 347.006 486.004 347.698C479.986 348.79 477.123 354.511 478.163 359.253L478.188 359.363L478.28 359.397C479.293 359.772 480.327 360.357 481.738 361.269L482.98 362.078C484.349 362.958 485.273 363.829 485.804 365.007C486.46 366.463 485.318 368.9 483.367 368.349C479.6 367.285 477.155 364.94 475.915 362.117L475.808 361.864L475.754 361.856C469.734 361.001 461.697 364.058 456.776 368.844L456.49 369.127C454.523 371.116 453.347 373.075 453.028 374.929L453.015 375.013L453.333 374.99C454.707 374.9 455.945 374.929 456.952 375.088L457.247 375.14C461.833 376.028 464.662 377.026 466.027 378.247C467.784 379.817 467.341 381.764 465.536 383.091C463.378 384.678 458.263 386.054 456.912 385.356C453.334 383.506 451.181 381.158 450.341 378.581L450.282 378.391L450.223 378.402C448.301 378.752 446.252 379.29 444.337 379.99L443.929 380.142C438.53 382.201 435.625 385.196 434.856 388.371C433.929 392.199 442.679 399.966 442.003 400.444C441.326 400.923 438.48 398.375 437.084 397.052L436.845 396.826C432.899 393.1 431.571 391.223 431.869 388.087C432.314 383.411 436.507 379.761 442.86 377.339C445.101 376.484 447.53 375.833 449.825 375.426L449.956 375.402L449.967 375.261C450.195 372.616 451.62 369.86 454.138 367.242L454.356 367.018C459.498 361.816 467.786 358.376 474.666 358.74L475.022 358.763L475 358.551C474.443 352.704 478.072 346.29 485.096 344.819L485.469 344.746L486.485 344.57C489.787 344.022 492.276 343.891 494.68 344.289L495.094 344.363L495.035 344.189C493.597 339.729 495.038 334.714 498.829 330.786L499.069 330.542C501.248 328.367 503.824 326.874 506.536 326.161L506.668 326.127L506.593 325.942C505.659 323.56 505.343 321.21 505.863 319.222L505.939 318.954C507.587 313.556 513.355 310.411 520.859 309.799L521.27 309.768L521.472 309.755L521.412 309.593C520.794 307.826 520.633 305.985 521.039 304.127L521.107 303.833C522.663 297.624 528.158 294.233 535.435 293.932L535.899 293.918L535.844 293.814C535.635 293.412 535.437 293.005 535.253 292.595L535.073 292.183C534.69 291.282 534.479 290.005 534.549 288.93C534.658 287.258 535.424 285.948 537.076 285.908ZM456.677 378.086C455.9 377.935 454.875 377.899 453.698 377.968L453.334 377.992L453.377 378.099C454.037 379.662 455.45 381.099 457.668 382.355L458.067 382.573L458.232 382.561L458.46 382.534C458.938 382.47 459.553 382.342 460.194 382.17C461.675 381.771 463.024 381.215 463.759 380.674L463.852 380.604L464.011 380.469L463.939 380.408C463.057 379.701 460.786 378.906 457.079 378.165L456.677 378.086ZM511.566 328.772L511.606 328.829C512.165 329.606 512.79 330.363 513.469 331.079C516.621 334.398 519.279 335.247 520.193 333.696L520.21 333.665C520.202 333.666 520.193 333.662 520.183 333.652L520.13 333.586C519.947 333.331 519.631 333.03 519.132 332.63L518.846 332.405L518.056 331.798L517.728 331.533C515.935 330.036 513.965 329.152 511.963 328.829L511.566 328.772ZM527.096 312.914L527.191 313.014C528.957 314.816 531.318 316.44 534.038 317.703C535.995 318.613 537.79 319.1 538.753 319.141L538.858 319.143L538.803 319.045C538.479 318.489 537.86 317.734 536.944 316.825L536.708 316.594C534.882 314.826 531.479 313.527 527.587 312.98L527.096 312.914ZM542.126 297.586L542.413 297.901C545.134 300.846 548.457 303.221 551.603 304.527C552.33 304.829 552.979 305.034 553.501 305.138L553.659 305.166L553.558 305.004C553.016 304.167 552.033 303.065 550.617 301.745C548.637 299.899 545.641 298.451 542.344 297.638L542.126 297.586Z" fill="#FFD06C"/>
<path fill-rule="evenodd" clip-rule="evenodd" d="M442.747 171.976C441.143 172.327 440.46 174.183 439.327 175.372C438.194 176.56 435.394 176.271 435.776 174.674C437.907 170.43 440.07 166.087 440.712 161.381C441.353 156.674 440.207 151.454 436.625 148.336C434.148 146.179 430.836 145.268 427.602 144.697C415.031 142.477 402.159 144.459 389.439 145.54C376.719 146.621 363.342 146.673 351.902 141.008C344.127 137.157 339.498 127.817 341.142 119.298C327.464 135.952 321.311 158.214 322.907 179.705C323.366 185.885 324.444 192.063 326.709 197.831C332.309 212.095 345.071 222.929 359.555 227.933C374.039 232.936 390.044 232.481 404.849 228.527C419.653 224.572 433.375 217.268 446.157 208.816C446.989 208.266 448.07 209.47 447.811 210.433C447.552 211.397 446.597 211.977 445.722 212.457C438.331 216.519 430.94 220.581 423.549 224.643C427.98 226.97 430.375 231.841 432.257 236.478C434.656 242.386 436.699 248.439 438.371 254.593C446.293 248.229 454.216 241.866 462.138 235.503C462.963 234.841 464.638 234.514 464.673 235.571C457.116 241.855 449.559 248.14 442.002 254.424C440.858 255.375 439.594 256.64 439.89 258.098C447.078 252.18 454.265 246.261 461.452 240.342C463.754 238.445 466.215 236.284 466.685 233.338C468.791 220.134 470.828 206.193 465.992 193.727C462.31 184.237 454.645 176.367 445.255 172.436C444.458 172.102 443.591 171.79 442.747 171.976Z" fill="white"/>
<path fill-rule="evenodd" clip-rule="evenodd" d="M391.31 287.098C391.999 287.135 392.528 287.723 392.492 288.413L392.446 289.21C392.242 292.571 391.929 294.723 391.444 295.824C390.959 296.925 392.05 296.91 392.419 296.821C392.788 296.733 396.901 292.373 397.382 292.868C397.863 293.364 397.851 294.155 397.356 294.636L396.834 295.138C394.719 297.154 393.35 298.209 392.419 298.432C391.6 298.628 390.076 299.104 389.882 298.032C389.512 295.982 390.914 293.761 391.264 290.998C391.49 289.208 390.933 287.11 391.182 287.098L391.31 287.098Z" fill="#00160A"/>
</svg>
