<svg width="750" height="750" viewBox="0 0 750 750" fill="none" xmlns="http://www.w3.org/2000/svg">
<rect width="750" height="750" fill="white"/>
<path fill-rule="evenodd" clip-rule="evenodd" d="M540.954 197.628C598.999 252.739 615.213 334.928 610.951 414.836C606.867 491.406 584.057 572.844 518.795 613.085C458.088 650.517 385.277 613.899 316.048 596.675C245.987 579.244 162.217 578.492 126.825 515.562C89.2285 448.713 115.899 367.555 148.041 297.943C182.44 223.442 227.19 146.276 306.708 125.974C389.929 104.727 478.65 138.475 540.954 197.628Z" fill="#FFD06C"/>
<path d="M410.824 169.184C413.749 168.547 416.743 169.675 419.498 170.849C472.215 193.311 513.348 241.293 527.489 296.824C541.631 352.355 528.458 414.167 492.905 459.107C457.352 504.048 400.23 531.091 342.936 530.108C341.771 536.763 340.606 543.417 339.442 550.072C339.44 544.432 339.35 538.463 336.391 533.662C333.432 528.861 326.499 526.048 321.967 529.405C315.775 536.799 320.56 550.2 330.036 551.999C328.182 556.346 321.036 554.992 318.633 550.923C316.231 546.854 316.776 541.787 316.406 537.076C316.036 532.366 313.862 526.949 309.228 526.025C295.471 523.281 281.978 519.217 268.995 513.906C260.592 510.469 250.907 503.718 252.876 494.856C254.331 488.31 262.076 484.805 268.724 485.685C275.371 486.566 281.106 490.62 286.539 494.55C289.373 484.757 292.207 474.964 295.041 465.171C286.121 465.584 283.617 452.515 276.101 447.694C241.716 425.633 218.793 386.641 216.241 345.867C213.688 305.094 231.569 263.547 262.935 237.371C294.301 211.195 338.376 201.036 378.035 210.843C382.741 205.054 391.537 203.05 398.286 206.228C404.597 203.008 404.274 194.077 403.481 187.037C402.689 179.998 403.902 170.693 410.824 169.184ZM299.538 497.675C296.94 494.798 299.489 496.499 299.489 496.499L299.538 497.999V498.685C299.538 498.685 293.241 496.248 290.217 495.261C341.939 512.732 402.129 502.568 445.246 469.082C488.363 435.596 513.11 379.795 508.986 325.357C504.861 270.92 471.989 219.485 424.318 192.877C423.182 192.243 421.908 191.6 420.635 191.877C419.001 192.231 418.073 193.916 417.355 195.426C414.962 200.46 412.569 205.493 410.176 210.526C415.813 213.836 418.825 221.066 417.205 227.399C449.464 247.845 471.928 283.069 476.86 320.942C481.793 358.815 469.1 398.618 443.154 426.644C417.207 454.67 378.499 470.388 340.359 468.385C331.421 467.915 321.793 466.677 314.091 471.237C305.185 476.509 301.986 487.62 299.538 497.675Z" fill="white"/>
<path d="M286.484 262.758C285.759 262.768 285.445 263.666 285.329 264.382C284.886 267.108 284.444 269.833 284.001 272.559C287.408 272.489 291.248 272.225 293.465 269.637C290.413 269.123 288.131 265.824 288.727 262.787C289.812 264.463 291.279 265.892 292.985 266.932C293.834 267.449 294.815 267.956 295.147 268.894C295.696 270.444 294.153 271.878 292.806 272.822C291.459 273.766 289.952 275.271 290.588 276.788C289.343 275.352 287.519 274.432 285.623 274.283C284.538 274.199 283.339 274.325 282.471 273.668C281.072 272.61 281.549 270.408 282.322 268.833C283.095 267.258 284.036 265.391 283.169 263.866C282.52 262.725 281 262.161 280.658 260.894C280.16 259.046 282.449 257.756 284.303 257.283C285.594 256.953 286.953 256.661 288.245 256.982C289.538 257.303 290.729 258.425 290.681 259.756C290.066 261.48 288.315 262.733 286.484 262.758V262.758ZM289.51 259.229C287.658 258.18 285.188 258.347 283.494 259.635C282.938 260.058 282.431 260.798 282.768 261.41C285.182 261.564 287.644 260.768 289.51 259.229Z" fill="black"/>
<path d="M420.341 360.057C419.527 359.734 418.803 359.184 418.274 358.485C420.242 357.625 421.856 355.984 422.683 354.002C423.209 352.742 425.091 352.719 426.222 353.485C427.353 354.25 428.06 355.5 429.089 356.398C430.118 357.296 431.833 357.747 432.777 356.759C433.877 355.607 436.012 356.536 436.572 358.027C437.131 359.518 436.639 361.175 436.147 362.69C435.86 363.57 435.548 364.491 434.863 365.114C434.178 365.736 432.997 365.914 432.364 365.239C429.879 362.59 424.919 363.02 422.927 366.057C420.936 364.857 419.846 362.328 420.341 360.057ZM423.936 355.969C422.157 357.767 421.554 360.632 422.457 362.994C422.664 363.538 423.361 364.117 423.721 363.659C425.374 361.555 428.386 360.635 430.932 361.456C431.414 361.611 431.842 360.975 431.704 360.488C431.567 360.001 431.111 359.684 430.687 359.408C428.869 358.227 427.05 357.045 425.232 355.863C425.02 355.726 424.787 355.582 424.536 355.607C424.298 355.631 424.103 355.8 423.936 355.969V355.969ZM433.729 364.54C434.471 362.834 434.974 361.025 435.219 359.182C435.273 358.774 435.072 358.162 434.692 358.319C432.441 359.36 431.899 362.867 433.729 364.54V364.54Z" fill="black"/>
<path d="M363.703 361.083C360.324 358.485 356.043 356.402 354.634 352.379C352.238 345.539 344.637 341.964 340.875 335.769C337.698 330.538 337.602 323.988 338.551 317.942C340.928 302.795 350.292 288.065 364.633 282.643C371.477 280.055 378.946 279.695 386.262 279.77C392.558 279.835 399.067 280.256 404.676 283.117C410.285 285.978 414.788 291.866 414.198 298.135C413.96 300.658 412.936 303.077 412.888 305.611C412.759 312.552 419.559 317.338 425.571 320.809C431.369 324.157 437.167 327.505 442.966 330.853C445.958 332.58 446.367 336.657 446.43 340.111C446.602 349.558 446.774 359.005 446.946 368.452C446.98 370.34 447.011 372.257 446.524 374.082C445.998 376.051 444.895 377.808 443.808 379.532C432.971 396.713 421.211 414.742 402.925 423.588C398.922 425.524 394.701 426.964 390.492 428.399C386.559 429.739 382.626 431.08 378.692 432.421C375.787 433.411 372.791 434.415 369.727 434.24C366.662 434.066 363.472 432.427 362.396 429.552C361.771 427.883 361.921 426.032 362.182 424.269C363.071 418.267 365.161 412.445 368.292 407.247C372.66 399.995 375.286 391.537 374.778 383.085C374.269 374.634 370.415 366.244 363.703 361.083ZM350.24 341.055C358.382 348.628 365.617 357.176 371.74 366.458C373.85 369.655 375.847 372.982 376.972 376.643C379.153 383.742 377.856 391.487 375.336 398.473C372.815 405.459 369.12 411.961 366.322 418.84C364.772 422.649 363.813 427.748 367.066 430.264C369.742 432.334 373.585 431.259 376.763 430.098C381.529 428.356 386.296 426.614 391.063 424.872C395.018 423.426 398.985 421.976 402.74 420.07C419.902 411.36 430.892 394.24 441.055 377.896C441.975 376.417 442.906 374.912 443.384 373.237C443.881 371.494 443.864 369.652 443.842 367.84C443.748 359.848 443.653 351.857 443.559 343.865C443.526 341.053 443.466 338.128 442.194 335.62C439.926 331.147 434.636 329.341 430.086 327.232C423.259 324.068 417.152 319.364 412.351 313.57C411.113 312.077 409.929 310.443 409.548 308.541C408.871 305.16 410.848 301.837 411.142 298.402C411.623 292.776 407.378 287.596 402.258 285.215C397.139 282.833 391.304 282.659 385.657 282.614C380.305 282.572 374.884 282.616 369.705 283.967C354.281 287.994 343.726 303.371 341.462 319.15C340.82 323.626 340.772 328.389 342.773 332.444C344.464 335.872 347.441 338.452 350.24 341.055Z" fill="black"/>
<path d="M275.984 579.635C282 583.294 289.148 584.507 296.118 585.505C307.205 587.091 318.345 588.309 329.513 589.155C343.9 590.245 359.215 590.517 371.729 583.335C372.653 582.804 373.597 582.193 374.102 581.255C375.638 578.403 372.133 575.316 368.946 574.746C365.758 574.176 362.073 574.503 359.744 572.254C364.436 569.923 370.34 570.244 374.752 573.069C379.164 575.894 381.926 581.122 381.772 586.359C381.647 590.652 379.717 594.786 379.917 599.076C380.161 604.31 374.825 607.942 369.956 609.876C354.477 616.022 337.355 616.181 320.702 615.936C305.949 615.719 290.624 615.112 277.514 608.342C274.217 606.64 270.995 604.446 269.172 601.214C267.536 598.312 267.193 594.883 266.884 591.566C266.264 584.896 265.872 577.438 270.169 572.298C274.265 567.398 281.264 566.285 287.634 565.824C290.71 565.601 291.792 561.518 291.23 558.485C290.668 555.452 289.329 552.221 290.65 549.434C293.285 543.868 302.44 546.604 307.146 542.632C308.707 541.314 311.218 543.661 310.611 545.612C310.004 547.564 307.71 548.477 305.667 548.515C303.623 548.554 301.588 547.991 299.553 548.177C297.518 548.364 295.322 549.665 295.149 551.701C313.91 559.229 335.093 560.575 354.655 555.48C351.288 551.358 345.895 548.977 340.58 549.265C340.666 547.953 342.133 547.212 343.426 546.973C349.282 545.889 355.311 549.987 357.554 555.504C359.797 561.021 358.745 567.47 355.949 572.728C353.406 571.936 353.607 568.342 354.018 565.711C354.428 563.079 353.346 559.279 350.732 559.786C332.863 563.247 314.086 561.903 296.893 555.931C295.581 555.475 294.746 557.321 294.586 558.701C293.987 563.86 293.681 569.868 297.495 573.394C299.367 575.125 301.913 575.895 304.385 576.519C317.821 579.912 331.952 580.524 345.63 578.307C347.545 577.997 349.984 577.866 350.919 579.565C340.555 584.264 328.612 583.195 317.292 582.032C311.941 581.483 306.484 580.906 301.578 578.701C296.794 576.552 292.745 572.943 287.854 571.05C282.963 569.157 276.409 569.649 273.742 574.165C273.448 574.663 273.208 575.208 273.166 575.785C273.046 577.458 274.551 578.764 275.984 579.635ZM376.698 600.286C378.877 595.415 376.871 589.827 376.227 584.531C361.365 594.681 341.819 593.804 323.919 591.927C313.542 590.838 303.185 589.546 292.858 588.05C286.161 587.08 279.127 585.873 273.892 581.586C272.486 580.435 270.924 582.847 270.691 584.649C270.015 589.888 269.427 595.587 272.148 600.115C275.132 605.08 281.191 607.146 286.816 608.533C311.569 614.637 337.767 614.792 362.59 608.983C368.174 607.676 374.357 605.521 376.698 600.286V600.286Z" fill="black"/>
<path d="M407.289 168.184C410.215 167.547 413.209 168.675 415.964 169.849C468.681 192.311 509.814 240.293 523.955 295.824C538.096 351.355 524.924 413.167 489.371 458.107C453.818 503.048 396.696 530.091 339.401 529.108C338.237 535.763 337.072 542.417 335.908 549.072C335.906 543.432 335.816 537.463 332.857 532.662C329.898 527.861 322.964 525.048 318.433 528.405C312.241 535.799 317.026 549.2 326.501 550.999C324.648 555.346 317.501 553.992 315.099 549.923C312.697 545.854 313.242 540.787 312.872 536.076C312.502 531.366 310.328 525.949 305.693 525.025C291.937 522.281 278.444 518.217 265.461 512.906C257.058 509.469 247.373 502.718 249.342 493.856C250.797 487.31 258.542 483.805 265.19 484.685C271.837 485.566 277.572 489.62 283.005 493.55C285.839 483.757 288.673 473.964 291.507 464.171C282.587 464.584 280.083 451.515 272.567 446.694C238.182 424.633 215.259 385.641 212.707 344.867C210.154 304.094 228.035 262.547 259.401 236.371C290.766 210.195 334.842 200.036 374.501 209.843C379.207 204.054 388.003 202.05 394.752 205.228C401.062 202.008 400.74 193.077 399.947 186.037C399.155 178.998 400.368 169.693 407.289 168.184V168.184ZM462.566 381.484C478.026 340.859 470.758 292.398 444.059 258.096C442.125 255.611 439.94 253.086 436.954 252.088C430.206 249.833 423.459 247.578 416.712 245.322C417.444 248.168 415.168 251.089 412.421 252.129C409.673 253.17 406.619 252.817 403.705 252.446C398.513 251.785 393.153 251.056 388.67 248.356C384.186 245.656 380.788 240.429 381.873 235.309C382.74 231.218 377.727 228.597 373.699 227.474C363.184 224.543 352.669 221.612 342.154 218.681C339.862 218.042 337.41 217.299 335.945 215.424C334.48 213.548 334.769 210.184 337.023 209.421C319.401 209.892 301.9 214.418 286.26 222.55C298.729 229.013 311.435 235.65 321.197 245.747C328.853 253.666 334.608 264.281 333.68 275.257C332.875 284.767 327.076 293.368 319.523 299.202C311.969 305.035 302.788 308.39 293.532 310.717C279.875 314.149 263.331 314.69 253.935 304.202C251.201 301.151 246.316 301.942 242.355 302.983C235.67 304.741 228.985 306.498 222.3 308.256C220.744 308.665 218.859 309.46 218.807 311.069C218.646 315.947 222.261 320.688 227.008 321.825C231.754 322.962 237.125 320.372 239.191 315.95C240.436 313.286 244.189 312.871 246.938 313.914C249.688 314.957 251.963 317.001 254.698 318.082C259.033 319.793 264.122 318.935 268.314 320.97C275.307 324.365 276.499 333.889 275.165 341.547C272.689 355.761 264.63 368.926 253.097 377.595C245.529 383.284 246.843 395.075 250.651 403.743C254.46 412.41 260.124 421.126 258.801 430.501C253.608 419.642 249.21 408.402 245.655 396.902C243.694 390.558 242.571 382.323 247.979 378.471C259.47 370.284 267.996 358.026 271.672 344.405C273.876 336.241 272.78 325.092 264.688 322.638C261.551 321.687 258.082 322.393 254.967 321.374C252.358 320.52 250.268 318.545 247.763 317.422C245.259 316.3 241.732 316.396 240.41 318.801C235.907 326.997 222.084 327.333 217.189 319.365C211.504 359.958 226.88 402.928 257.028 430.699C287.176 458.471 331.261 470.274 371.252 461.282C411.243 452.29 446.033 422.752 461.392 384.749C457.124 382.846 454.707 378.13 454.083 373.5C453.458 368.869 454.291 364.185 454.752 359.536C455.681 350.185 455.098 340.686 453.034 331.519C452.479 329.054 451.391 326.184 448.916 325.673C441.488 324.139 434.439 320.801 428.547 316.025C424.071 312.398 420.314 305.208 424.67 301.437C426.699 299.68 423.819 296.786 422.77 294.315C420.556 289.099 427.337 284.815 432.757 283.161C439.112 281.222 445.468 279.283 451.823 277.345C452.509 277.135 453.236 276.924 453.932 277.094C455.958 277.589 455.816 280.86 454.111 282.061C452.407 283.263 450.132 283.068 448.047 283.018C439.755 282.821 431.428 285.856 425.206 291.342C427.974 294.402 428.686 299.156 426.937 302.893C424.832 307.393 427.82 312.851 431.952 315.609C436.083 318.367 441.124 319.307 445.761 321.088C450.399 322.869 455.072 326.034 456.195 330.873C458.469 340.676 458.964 350.889 457.648 360.867C456.656 368.397 455.725 378.183 462.566 381.484V381.484ZM296.003 496.675C293.406 493.798 294.048 489.235 295.667 485.714C297.286 482.193 299.733 478.968 300.418 475.153C301.103 471.338 299.036 466.579 295.172 466.282C292.342 475.608 289.512 484.935 286.682 494.261C338.404 511.732 398.595 501.568 441.712 468.082C484.829 434.596 509.576 378.795 505.451 324.357C501.327 269.92 468.455 218.485 420.784 191.877C419.647 191.243 418.374 190.6 417.101 190.877C415.467 191.231 414.539 192.916 413.821 194.426C411.428 199.46 409.035 204.493 406.642 209.526C412.279 212.836 415.291 220.066 413.671 226.399C445.93 246.845 468.394 282.069 473.326 319.942C478.259 357.815 465.566 397.618 439.62 425.644C413.673 453.67 374.965 469.388 336.825 467.385C327.886 466.915 318.259 465.677 310.556 470.237C301.651 475.509 298.452 486.62 296.003 496.675H296.003ZM417.778 174.26C414.837 172.949 411.637 171.688 408.478 172.315C405.319 172.941 402.513 176.289 403.664 179.296C459.045 201.906 500.388 255.779 507.9 315.124C515.413 374.469 488.799 436.945 440.799 472.642C392.798 508.339 325.307 515.849 270.634 491.576C265.324 489.218 258.075 487.013 254.572 491.648C252.415 494.502 253.137 498.766 255.312 501.606C257.487 504.445 260.782 506.169 264.011 507.707C322.334 535.501 395.399 529.416 448.321 492.357C501.243 455.297 531.946 388.718 525.771 324.406C519.596 260.094 476.785 200.573 417.778 174.26V174.26ZM221.11 305.678C227.915 303.82 234.721 301.962 241.526 300.104C246.22 298.822 252.032 297.839 255.274 301.468C260.509 307.327 268.615 310.008 276.47 310.157C284.326 310.306 292.041 308.189 299.514 305.762C309.699 302.453 320.549 297.785 325.424 288.25C328.29 282.646 331.232 276.693 330.843 270.411C330.485 264.62 327.342 259.422 324.288 254.49C321.722 250.345 319.089 246.124 315.339 243.009C308.941 237.694 299.903 236.11 294.056 230.194C290.677 226.774 285.309 225.94 280.62 227.004C275.931 228.068 271.787 230.758 267.918 233.612C245.737 249.978 229.018 273.621 220.982 299.988C220.407 301.875 219.927 304.099 221.11 305.678ZM414.28 244.158C416.452 241.036 421.356 242.123 424.592 244.122C427.828 246.121 431.314 248.828 434.999 247.883C414.875 227.472 387.917 213.918 359.531 209.938C352.183 208.908 343.757 208.843 338.475 214.055C351.693 218.019 364.911 221.984 378.129 225.948C379.868 226.47 381.704 227.052 382.895 228.423C384.989 230.832 384.24 234.492 384.822 237.631C385.661 242.154 389.46 245.675 393.707 247.444C397.954 249.213 402.644 249.527 407.235 249.82C408.831 249.922 410.61 249.966 411.815 248.915C413.173 247.73 413.251 245.637 414.28 244.158ZM410.266 224.124C411.501 221.423 410.388 218.108 408.337 215.96C406.286 213.812 403.472 212.589 400.715 211.484C395.882 209.545 390.867 207.776 385.661 207.636C384.356 207.601 382.92 207.722 381.983 208.631C381.047 209.541 381.133 211.475 382.383 211.853C392.126 214.8 401.511 218.93 410.266 224.124ZM315.287 464.288C305.812 462.521 296.59 459.405 287.985 455.064C287.273 454.705 286.516 454.327 285.722 454.402C284.928 454.477 284.145 455.219 284.346 455.991C284.482 456.513 284.988 456.839 285.454 457.112C290.401 460.021 295.389 462.948 300.817 464.811C306.244 466.674 312.209 467.421 317.737 465.88C317.551 464.857 316.309 464.479 315.287 464.288V464.288ZM410.958 186.468C410.214 185.378 408.471 185.457 407.439 186.28C406.408 187.103 405.912 188.407 405.461 189.646C403.575 194.829 401.688 200.012 399.802 205.195C399.629 205.672 399.453 206.169 399.509 206.672C399.672 208.135 401.748 208.665 403.008 207.903C404.267 207.141 404.865 205.662 405.382 204.284C407.194 199.45 409.006 194.616 410.819 189.782C411.223 188.703 411.607 187.419 410.958 186.468V186.468Z" fill="black"/>
</svg>
