<svg width="226" height="80" viewBox="0 0 226 80" fill="none" xmlns="http://www.w3.org/2000/svg">
<g clip-path="url(#clip0_4006_12)">
<path d="M41.9448 1.09666C42.2854 0.423998 42.9752 1.677e-09 43.7292 4.31351e-07L67.2458 1.38334e-05C68.7369 1.46831e-05 69.7037 1.57299 69.0302 2.90335L30.5552 78.9034C30.2146 79.576 29.5248 80 28.7708 80L5.25418 80C3.76306 80 2.79632 78.427 3.46981 77.0967L41.9448 1.09666Z" fill="#FFCEAF"/>
<path d="M78.9497 1.11458C79.2867 0.432082 79.9819 2.98272e-05 80.743 2.98035e-05L132.282 2.81962e-05C133.764 2.815e-05 134.732 1.55628 134.075 2.88548L96.5503 78.8854C96.2133 79.5679 95.5182 80 94.757 80L43.218 80C41.7356 80 40.7684 78.4438 41.4247 77.1146L78.9497 1.11458Z" fill="#FF9959"/>
<path d="M145.447 1.10557C145.786 0.428 146.479 -7.20342e-06 147.236 -6.69189e-06L220.764 4.29571e-05C222.251 4.3961e-05 223.218 1.56467 222.553 2.89447L184.553 78.8944C184.214 79.572 183.521 80 182.764 80L109.236 80C107.749 80 106.782 78.4354 107.447 77.1056L145.447 1.10557Z" fill="#FF6200"/>
</g>
<defs>
<clipPath id="clip0_4006_12">
<rect width="226" height="80" fill="white"/>
</clipPath>
</defs>
</svg>
